<?xml version="1.0" standalone="no"?>
<!DOCTYPE svg PUBLIC "-//W3C//DTD SVG 20010904//EN"
 "http://www.w3.org/TR/2001/REC-SVG-20010904/DTD/svg10.dtd">
<svg version="1.0" xmlns="http://www.w3.org/2000/svg"
 width="970.000000pt" height="970.000000pt" viewBox="0 0 970.000000 970.000000"
 preserveAspectRatio="xMidYMid meet">
<metadata>
Created by potrace 1.14, written by Peter Selinger 2001-2017
</metadata>
<g transform="translate(0.000000,970.000000) scale(0.100000,-0.100000)"
fill="#000000" stroke="none">
<path d="M4598 9696 c-1 -2 -50 -6 -108 -10 -110 -7 -125 -9 -255 -26 -99 -13
-135 -18 -205 -31 -30 -5 -68 -11 -85 -14 -269 -46 -776 -200 -1000 -305 -11
-5 -47 -21 -80 -35 -116 -51 -346 -169 -431 -221 -28 -17 -60 -35 -72 -38 -12
-4 -22 -12 -22 -17 0 -5 -5 -9 -11 -9 -10 0 -315 -200 -354 -233 -19 -15 -62
-49 -130 -100 -45 -34 -233 -195 -294 -252 -123 -114 -328 -330 -411 -431 -8
-11 -44 -55 -80 -99 -36 -44 -86 -109 -112 -145 -26 -36 -51 -70 -55 -76 -4
-5 -12 -17 -18 -26 -5 -8 -40 -60 -76 -114 -73 -111 -140 -219 -190 -309 -32
-59 -162 -315 -164 -325 -3 -9 -22 -53 -54 -122 -17 -36 -31 -72 -31 -80 0 -8
-4 -18 -9 -24 -4 -5 -23 -49 -41 -99 -18 -49 -39 -108 -47 -130 -56 -153 -158
-540 -179 -680 -3 -16 -9 -50 -14 -75 -10 -50 -26 -162 -45 -320 -27 -229 -27
-773 -1 -985 2 -16 7 -59 11 -95 4 -36 9 -78 12 -95 2 -16 6 -41 8 -55 2 -14
6 -40 9 -57 3 -18 8 -48 12 -65 3 -18 12 -67 21 -108 8 -41 17 -86 19 -99 13
-68 78 -304 119 -430 98 -301 227 -600 362 -840 29 -51 53 -95 53 -96 0 -5 98
-163 158 -255 53 -81 189 -269 201 -280 3 -3 19 -23 36 -45 16 -22 32 -42 35
-45 3 -3 13 -14 21 -26 8 -11 41 -52 74 -89 33 -37 73 -83 90 -102 50 -57 207
-214 301 -300 49 -45 96 -89 104 -97 19 -17 267 -215 300 -239 14 -9 48 -34
75 -53 257 -185 559 -353 910 -509 129 -57 427 -162 570 -200 50 -14 115 -31
145 -39 30 -8 66 -17 80 -20 14 -2 54 -11 90 -19 36 -8 81 -18 100 -21 19 -3
46 -8 60 -11 69 -13 222 -35 280 -40 36 -4 76 -8 90 -11 62 -11 255 -19 480
-19 257 0 405 8 578 30 139 17 136 17 202 29 14 3 43 8 65 11 22 3 47 7 55 10
8 2 33 6 55 10 22 3 56 10 75 15 19 5 46 11 60 14 14 3 52 12 85 21 33 9 68
18 79 20 68 15 394 120 434 141 15 8 32 14 38 14 6 0 29 8 50 17 22 9 44 17
49 19 19 4 321 143 400 185 142 74 379 211 395 229 7 7 42 29 60 37 8 4 20 12
27 17 6 6 41 31 78 56 65 44 335 254 404 315 134 118 281 263 281 278 0 5 3 8
6 4 9 -9 171 168 298 327 26 34 58 73 70 88 11 14 28 36 36 48 14 20 79 111
98 135 30 41 97 145 143 220 29 50 56 92 59 95 3 3 12 19 20 35 8 17 17 32 20
35 9 9 169 316 178 342 4 13 43 101 57 133 67 144 185 485 231 663 28 110 67
284 79 352 8 47 17 96 20 110 2 13 7 42 10 65 3 22 10 69 15 105 41 273 48
820 14 1120 -20 186 -40 309 -75 481 -11 52 -21 104 -23 115 -8 37 -55 210
-80 294 -15 47 -28 92 -30 100 -7 24 -65 191 -83 235 -28 71 -31 78 -94 225
-83 190 -186 390 -286 555 -97 160 -266 407 -284 413 -5 2 -9 8 -9 13 0 5 -6
17 -14 26 -8 10 -31 38 -51 63 -120 147 -146 178 -240 279 -126 136 -225 230
-430 410 -62 55 -265 211 -274 211 -5 0 -11 4 -13 8 -1 5 -46 38 -98 73 -52
35 -96 67 -98 72 -2 4 -8 7 -14 7 -5 0 -28 12 -51 28 -118 77 -505 287 -547
297 -3 1 -27 12 -55 24 -172 77 -585 229 -585 214 0 -3 -6 -1 -12 4 -13 10
-108 36 -118 32 -3 -1 -14 3 -26 9 -11 6 -32 13 -45 16 -13 2 -55 12 -94 21
-38 9 -81 19 -95 21 -14 2 -48 9 -76 15 -69 13 -105 20 -129 24 -56 9 -257 35
-305 40 -30 3 -75 8 -100 11 -49 5 -636 14 -642 10z"/>
</g>
</svg>
